<?xml version="1.0" standalone="no"?>
<!DOCTYPE svg PUBLIC "-//W3C//DTD SVG 20010904//EN"
 "http://www.w3.org/TR/2001/REC-SVG-20010904/DTD/svg10.dtd">
<svg version="1.0" xmlns="http://www.w3.org/2000/svg"
 width="512.000000pt" height="512.000000pt" viewBox="0 0 512.000000 512.000000"
 preserveAspectRatio="xMidYMid meet">

<g transform="translate(0.000000,512.000000) scale(0.100000,-0.100000)"
fill="#000000" stroke="none">
<path d="M3624 4109 l-1011 -1011 -43 28 c-34 23 -57 29 -111 32 -88 5 -132
-15 -218 -102 l-63 -64 -52 39 c-128 98 -318 121 -461 55 -57 -26 -1620 -1096
-1647 -1128 -40 -46 -31 -59 215 -305 275 -277 306 -298 430 -292 55 3 86 11
125 31 29 15 52 25 52 21 0 -3 -7 -33 -16 -67 -32 -121 -17 -231 45 -319 16
-23 252 -264 523 -535 523 -522 517 -517 566 -475 32 29 1102 1592 1129 1649
63 139 40 334 -56 460 l-39 52 64 63 c87 86 107 130 102 218 -3 54 -9 77 -32
111 l-28 43 1011 1011 c885 885 1011 1015 1011 1041 0 25 -32 61 -213 242
-181 181 -217 213 -242 213 -26 0 -156 -126 -1041 -1011z m349 -421 l-978
-978 -142 142 -143 143 977 977 978 978 142 -142 143 -143 -977 -977z m-1221
-936 c258 -257 268 -269 268 -306 0 -34 -8 -46 -65 -105 l-64 -66 -308 308
-308 308 66 64 c59 57 71 65 105 65 37 0 49 -10 306 -268z m-802 216 c19 -6
51 -21 70 -34 19 -12 233 -222 476 -466 491 -494 485 -485 485 -616 0 -78 -17
-133 -62 -198 l-32 -46 -639 638 -639 639 28 23 c87 70 204 93 313 60z m199
-822 c359 -359 652 -658 650 -664 -6 -16 -153 -231 -159 -232 -3 0 -318 313
-700 695 -539 540 -692 698 -680 705 8 5 60 40 115 79 55 38 105 70 110 70 6
1 304 -293 664 -653z m333 -1130 c-43 -61 -189 -275 -327 -474 l-249 -363
-152 152 -152 152 159 212 c100 133 159 220 159 235 0 33 -38 70 -71 70 -33 0
-43 -12 -213 -238 -71 -95 -132 -172 -135 -172 -4 0 -44 38 -90 84 l-84 84
107 139 c111 146 124 177 89 215 -16 18 -68 24 -89 10 -6 -4 -55 -65 -109
-135 l-98 -129 -119 119 c-66 65 -129 136 -140 158 -30 58 -26 118 21 288 23
82 41 157 41 168 0 28 -36 59 -68 59 -17 0 -64 -23 -121 -60 -51 -33 -106 -67
-121 -75 -37 -19 -103 -19 -138 -1 -15 8 -111 99 -215 203 l-188 189 308 211
c170 117 382 264 473 327 l165 114 717 -715 716 -716 -76 -111z"/>
</g>
</svg>
